%TF.GenerationSoftware,KiCad,Pcbnew,9.0.3-9.0.3-0~ubuntu24.04.1*%
%TF.CreationDate,2025-07-29T06:12:15+03:00*%
%TF.ProjectId,PCB,5043422e-6b69-4636-9164-5f7063625858,rev?*%
%TF.SameCoordinates,Original*%
%TF.FileFunction,Soldermask,Bot*%
%TF.FilePolarity,Negative*%
%FSLAX46Y46*%
G04 Gerber Fmt 4.6, Leading zero omitted, Abs format (unit mm)*
G04 Created by KiCad (PCBNEW 9.0.3-9.0.3-0~ubuntu24.04.1) date 2025-07-29 06:12:15*
%MOMM*%
%LPD*%
G01*
G04 APERTURE LIST*
G04 Aperture macros list*
%AMRoundRect*
0 Rectangle with rounded corners*
0 $1 Rounding radius*
0 $2 $3 $4 $5 $6 $7 $8 $9 X,Y pos of 4 corners*
0 Add a 4 corners polygon primitive as box body*
4,1,4,$2,$3,$4,$5,$6,$7,$8,$9,$2,$3,0*
0 Add four circle primitives for the rounded corners*
1,1,$1+$1,$2,$3*
1,1,$1+$1,$4,$5*
1,1,$1+$1,$6,$7*
1,1,$1+$1,$8,$9*
0 Add four rect primitives between the rounded corners*
20,1,$1+$1,$2,$3,$4,$5,0*
20,1,$1+$1,$4,$5,$6,$7,0*
20,1,$1+$1,$6,$7,$8,$9,0*
20,1,$1+$1,$8,$9,$2,$3,0*%
G04 Aperture macros list end*
%ADD10C,1.524000*%
%ADD11C,1.400000*%
%ADD12C,2.019000*%
%ADD13RoundRect,0.102000X-0.907500X-0.907500X0.907500X-0.907500X0.907500X0.907500X-0.907500X0.907500X0*%
%ADD14C,1.700000*%
%ADD15C,4.000000*%
%ADD16C,2.200000*%
G04 APERTURE END LIST*
D10*
%TO.C,U1*%
X230500000Y-113740000D03*
X227960000Y-113740000D03*
X225420000Y-113740000D03*
X222880000Y-113740000D03*
X220340000Y-113740000D03*
X217800000Y-113740000D03*
X215260000Y-113740000D03*
X215260000Y-98500000D03*
X217800000Y-98500000D03*
X220340000Y-98500000D03*
X222880000Y-98500000D03*
X225420000Y-98500000D03*
X227960000Y-98500000D03*
X230500000Y-98500000D03*
%TD*%
D11*
%TO.C,R4*%
X225500000Y-90000000D03*
X220420000Y-90000000D03*
%TD*%
D12*
%TO.C,D1*%
X168500000Y-58500000D03*
D13*
X165960000Y-58500000D03*
%TD*%
D14*
%TO.C,SW4*%
X221000000Y-77040000D03*
D15*
X226080000Y-77040000D03*
D14*
X231160000Y-77040000D03*
D16*
X228620000Y-71960000D03*
X222270000Y-74500000D03*
%TD*%
D14*
%TO.C,SW3*%
X200840000Y-77000000D03*
D15*
X205920000Y-77000000D03*
D14*
X211000000Y-77000000D03*
D16*
X208460000Y-71920000D03*
X202110000Y-74460000D03*
%TD*%
D14*
%TO.C,SW2*%
X181500000Y-77040000D03*
D15*
X186580000Y-77040000D03*
D14*
X191660000Y-77040000D03*
D16*
X189120000Y-71960000D03*
X182770000Y-74500000D03*
%TD*%
D14*
%TO.C,SW1*%
X161840000Y-77000000D03*
D15*
X166920000Y-77000000D03*
D14*
X172000000Y-77000000D03*
D16*
X169460000Y-71920000D03*
X163110000Y-74460000D03*
%TD*%
D11*
%TO.C,R3*%
X203420000Y-90500000D03*
X208500000Y-90500000D03*
%TD*%
%TO.C,R2*%
X184460000Y-90500000D03*
X189540000Y-90500000D03*
%TD*%
D13*
%TO.C,D4*%
X223960000Y-57500000D03*
D12*
X226500000Y-57500000D03*
%TD*%
D13*
%TO.C,D3*%
X203960000Y-58000000D03*
D12*
X206500000Y-58000000D03*
%TD*%
D13*
%TO.C,D2*%
X185230000Y-58500000D03*
D12*
X187770000Y-58500000D03*
%TD*%
D11*
%TO.C,R1*%
X164460000Y-90000000D03*
X169540000Y-90000000D03*
%TD*%
M02*
