M48
; DRILL file {KiCad 9.0.3-9.0.3-0~ubuntu24.04.1} date 2025-07-29T06:12:22+0300
; FORMAT={-:-/ absolute / metric / decimal}
; #@! TF.CreationDate,2025-07-29T06:12:22+03:00
; #@! TF.GenerationSoftware,Kicad,Pcbnew,9.0.3-9.0.3-0~ubuntu24.04.1
; #@! TF.FileFunction,Plated,1,2,PTH
FMAT,2
METRIC
; #@! TA.AperFunction,Plated,PTH,ComponentDrill
T1C0.700
; #@! TA.AperFunction,Plated,PTH,ComponentDrill
T2C0.889
; #@! TA.AperFunction,Plated,PTH,ComponentDrill
T3C1.210
; #@! TA.AperFunction,Plated,PTH,ComponentDrill
T4C1.500
%
G90
G05
T1
X164.46Y-90.0
X169.54Y-90.0
X184.46Y-90.5
X189.54Y-90.5
X203.42Y-90.5
X208.5Y-90.5
X220.42Y-90.0
X225.5Y-90.0
T2
X215.26Y-98.5
X215.26Y-113.74
X217.8Y-98.5
X217.8Y-113.74
X220.34Y-98.5
X220.34Y-113.74
X222.88Y-98.5
X222.88Y-113.74
X225.42Y-98.5
X225.42Y-113.74
X227.96Y-98.5
X227.96Y-113.74
X230.5Y-98.5
X230.5Y-113.74
T3
X165.96Y-58.5
X168.5Y-58.5
X185.23Y-58.5
X187.77Y-58.5
X203.96Y-58.0
X206.5Y-58.0
X223.96Y-57.5
X226.5Y-57.5
T4
X163.11Y-74.46
X169.46Y-71.92
X182.77Y-74.5
X189.12Y-71.96
X202.11Y-74.46
X208.46Y-71.92
X222.27Y-74.5
X228.62Y-71.96
M30
