%TF.GenerationSoftware,KiCad,Pcbnew,9.0.3-9.0.3-0~ubuntu24.04.1*%
%TF.CreationDate,2025-07-29T06:12:14+03:00*%
%TF.ProjectId,PCB,5043422e-6b69-4636-9164-5f7063625858,rev?*%
%TF.SameCoordinates,Original*%
%TF.FileFunction,Copper,L1,Top*%
%TF.FilePolarity,Positive*%
%FSLAX46Y46*%
G04 Gerber Fmt 4.6, Leading zero omitted, Abs format (unit mm)*
G04 Created by KiCad (PCBNEW 9.0.3-9.0.3-0~ubuntu24.04.1) date 2025-07-29 06:12:14*
%MOMM*%
%LPD*%
G01*
G04 APERTURE LIST*
G04 Aperture macros list*
%AMRoundRect*
0 Rectangle with rounded corners*
0 $1 Rounding radius*
0 $2 $3 $4 $5 $6 $7 $8 $9 X,Y pos of 4 corners*
0 Add a 4 corners polygon primitive as box body*
4,1,4,$2,$3,$4,$5,$6,$7,$8,$9,$2,$3,0*
0 Add four circle primitives for the rounded corners*
1,1,$1+$1,$2,$3*
1,1,$1+$1,$4,$5*
1,1,$1+$1,$6,$7*
1,1,$1+$1,$8,$9*
0 Add four rect primitives between the rounded corners*
20,1,$1+$1,$2,$3,$4,$5,0*
20,1,$1+$1,$4,$5,$6,$7,0*
20,1,$1+$1,$6,$7,$8,$9,0*
20,1,$1+$1,$8,$9,$2,$3,0*%
G04 Aperture macros list end*
%TA.AperFunction,SMDPad,CuDef*%
%ADD10RoundRect,0.152400X-0.609600X1.063600X-0.609600X-1.063600X0.609600X-1.063600X0.609600X1.063600X0*%
%TD*%
%TA.AperFunction,ComponentPad*%
%ADD11C,1.524000*%
%TD*%
%TA.AperFunction,SMDPad,CuDef*%
%ADD12RoundRect,0.152400X0.609600X-1.063600X0.609600X1.063600X-0.609600X1.063600X-0.609600X-1.063600X0*%
%TD*%
%TA.AperFunction,ComponentPad*%
%ADD13C,1.400000*%
%TD*%
%TA.AperFunction,ComponentPad*%
%ADD14C,1.815000*%
%TD*%
%TA.AperFunction,ComponentPad*%
%ADD15R,1.815000X1.815000*%
%TD*%
%TA.AperFunction,ComponentPad*%
%ADD16C,2.200000*%
%TD*%
%TA.AperFunction,Conductor*%
%ADD17C,0.200000*%
%TD*%
G04 APERTURE END LIST*
D10*
%TO.P,U1,14,VBUS*%
%TO.N,unconnected-(U1-VBUS-Pad14)*%
X230500000Y-114575000D03*
D11*
X230500000Y-113740000D03*
D10*
%TO.P,U1,13,GND*%
%TO.N,GND*%
X227960000Y-114575000D03*
D11*
X227960000Y-113740000D03*
D10*
%TO.P,U1,12,3V3*%
%TO.N,unconnected-(U1-3V3-Pad12)*%
X225420000Y-114575000D03*
D11*
X225420000Y-113740000D03*
D10*
%TO.P,U1,11,GPIO3/MOSI*%
%TO.N,unconnected-(U1-GPIO3{slash}MOSI-Pad11)*%
X222880000Y-114575000D03*
D11*
X222880000Y-113740000D03*
D10*
%TO.P,U1,10,GPIO4/MISO*%
%TO.N,unconnected-(U1-GPIO4{slash}MISO-Pad10)*%
X220340000Y-114575000D03*
D11*
X220340000Y-113740000D03*
D10*
%TO.P,U1,9,GPIO2/SCK*%
%TO.N,unconnected-(U1-GPIO2{slash}SCK-Pad9)*%
X217800000Y-114575000D03*
D11*
X217800000Y-113740000D03*
D10*
%TO.P,U1,8,GPIO1/RX*%
%TO.N,LED4*%
X215260000Y-114575000D03*
D11*
X215260000Y-113740000D03*
%TO.P,U1,7,GPIO0/TX*%
%TO.N,LED3*%
X215260000Y-98500000D03*
D12*
X215260000Y-97665000D03*
D11*
%TO.P,U1,6,GPIO7/SCL*%
%TO.N,LED2*%
X217800000Y-98500000D03*
D12*
X217800000Y-97665000D03*
D11*
%TO.P,U1,5,GPIO6/SDA*%
%TO.N,LED1*%
X220340000Y-98500000D03*
D12*
X220340000Y-97665000D03*
D11*
%TO.P,U1,4,GPIO29/ADC3/A3*%
%TO.N,Button4*%
X222880000Y-98500000D03*
D12*
X222880000Y-97665000D03*
D11*
%TO.P,U1,3,GPIO28/ADC2/A2*%
%TO.N,Button3*%
X225420000Y-98500000D03*
D12*
X225420000Y-97665000D03*
D11*
%TO.P,U1,2,GPIO27/ADC1/A1*%
%TO.N,Button2*%
X227960000Y-98500000D03*
D12*
X227960000Y-97665000D03*
D11*
%TO.P,U1,1,GPIO26/ADC0/A0*%
%TO.N,Button1*%
X230500000Y-98500000D03*
D12*
X230500000Y-97665000D03*
%TD*%
D13*
%TO.P,R4,2*%
%TO.N,LED1*%
X225500000Y-90000000D03*
%TO.P,R4,1*%
%TO.N,Net-(D4-PadA)*%
X220420000Y-90000000D03*
%TD*%
D14*
%TO.P,D1,A*%
%TO.N,Net-(D1-PadA)*%
X168500000Y-58500000D03*
D15*
%TO.P,D1,C*%
%TO.N,GND*%
X165960000Y-58500000D03*
%TD*%
D16*
%TO.P,SW4,1,1*%
%TO.N,Button4*%
X228620000Y-71960000D03*
%TO.P,SW4,2,2*%
%TO.N,GND*%
X222270000Y-74500000D03*
%TD*%
%TO.P,SW3,1,1*%
%TO.N,Button3*%
X208460000Y-71920000D03*
%TO.P,SW3,2,2*%
%TO.N,GND*%
X202110000Y-74460000D03*
%TD*%
%TO.P,SW2,1,1*%
%TO.N,Button2*%
X189120000Y-71960000D03*
%TO.P,SW2,2,2*%
%TO.N,GND*%
X182770000Y-74500000D03*
%TD*%
%TO.P,SW1,1,1*%
%TO.N,Button1*%
X169460000Y-71920000D03*
%TO.P,SW1,2,2*%
%TO.N,GND*%
X163110000Y-74460000D03*
%TD*%
D13*
%TO.P,R3,1*%
%TO.N,Net-(D3-PadA)*%
X203420000Y-90500000D03*
%TO.P,R3,2*%
%TO.N,LED2*%
X208500000Y-90500000D03*
%TD*%
%TO.P,R2,1*%
%TO.N,Net-(D2-PadA)*%
X184460000Y-90500000D03*
%TO.P,R2,2*%
%TO.N,LED3*%
X189540000Y-90500000D03*
%TD*%
D15*
%TO.P,D4,C*%
%TO.N,GND*%
X223960000Y-57500000D03*
D14*
%TO.P,D4,A*%
%TO.N,Net-(D4-PadA)*%
X226500000Y-57500000D03*
%TD*%
D15*
%TO.P,D3,C*%
%TO.N,GND*%
X203960000Y-58000000D03*
D14*
%TO.P,D3,A*%
%TO.N,Net-(D3-PadA)*%
X206500000Y-58000000D03*
%TD*%
D15*
%TO.P,D2,C*%
%TO.N,GND*%
X185230000Y-58500000D03*
D14*
%TO.P,D2,A*%
%TO.N,Net-(D2-PadA)*%
X187770000Y-58500000D03*
%TD*%
D13*
%TO.P,R1,1*%
%TO.N,Net-(D1-PadA)*%
X164460000Y-90000000D03*
%TO.P,R1,2*%
%TO.N,LED4*%
X169540000Y-90000000D03*
%TD*%
D17*
%TO.N,Button1*%
X169460000Y-71920000D02*
X169460000Y-76915628D01*
X169460000Y-76915628D02*
X192909372Y-100365000D01*
X192909372Y-100365000D02*
X228635000Y-100365000D01*
X228635000Y-100365000D02*
X230500000Y-98500000D01*
%TO.N,Button2*%
X189120000Y-71960000D02*
X189120000Y-89504372D01*
X188539000Y-90914628D02*
X197588372Y-99964000D01*
X189120000Y-89504372D02*
X188539000Y-90085372D01*
X188539000Y-90085372D02*
X188539000Y-90914628D01*
X197588372Y-99964000D02*
X226496000Y-99964000D01*
X226496000Y-99964000D02*
X227960000Y-98500000D01*
%TO.N,Button3*%
X208460000Y-71920000D02*
X219277000Y-82737000D01*
X219277000Y-82737000D02*
X219277000Y-98940310D01*
X219277000Y-98940310D02*
X219899690Y-99563000D01*
X219899690Y-99563000D02*
X224357000Y-99563000D01*
X224357000Y-99563000D02*
X225420000Y-98500000D01*
%TO.N,Button4*%
X228620000Y-71960000D02*
X229000000Y-72340000D01*
X229000000Y-72340000D02*
X229000000Y-87915628D01*
X229000000Y-87915628D02*
X222880000Y-94035628D01*
X222880000Y-94035628D02*
X222880000Y-98500000D01*
%TO.N,LED4*%
X169540000Y-90000000D02*
X193280000Y-113740000D01*
X193280000Y-113740000D02*
X215260000Y-113740000D01*
%TO.N,LED3*%
X189540000Y-90500000D02*
X197540000Y-98500000D01*
X197540000Y-98500000D02*
X215260000Y-98500000D01*
%TO.N,LED2*%
X208500000Y-90500000D02*
X210877630Y-90500000D01*
X210877630Y-90500000D02*
X217800000Y-97422370D01*
X217800000Y-97422370D02*
X217800000Y-98500000D01*
%TO.N,LED1*%
X225500000Y-90000000D02*
X220340000Y-95160000D01*
X220340000Y-95160000D02*
X220340000Y-98500000D01*
%TO.N,GND*%
X223960000Y-57500000D02*
X226099000Y-59639000D01*
X226099000Y-59639000D02*
X226099000Y-70671000D01*
X226099000Y-70671000D02*
X222270000Y-74500000D01*
X203960000Y-58000000D02*
X206099000Y-60139000D01*
X206099000Y-60139000D02*
X206099000Y-70471000D01*
X206099000Y-70471000D02*
X202110000Y-74460000D01*
X185230000Y-58500000D02*
X186438500Y-57291500D01*
X186438500Y-57291500D02*
X188270578Y-57291500D01*
X188270578Y-57291500D02*
X189000000Y-58020922D01*
X189000000Y-58020922D02*
X189000000Y-68270000D01*
X189000000Y-68270000D02*
X182770000Y-74500000D01*
X165960000Y-58500000D02*
X167168500Y-57291500D01*
X167168500Y-57291500D02*
X169000578Y-57291500D01*
X169000578Y-57291500D02*
X169708500Y-57999422D01*
X169708500Y-57999422D02*
X169708500Y-67861500D01*
X169708500Y-67861500D02*
X163110000Y-74460000D01*
%TO.N,Net-(D4-PadA)*%
X226500000Y-57500000D02*
X226500000Y-74135184D01*
X226500000Y-74135184D02*
X228431000Y-76066184D01*
X228431000Y-76066184D02*
X228431000Y-81989000D01*
X228431000Y-81989000D02*
X220420000Y-90000000D01*
%TO.N,Net-(D3-PadA)*%
X206500000Y-58000000D02*
X206500000Y-73038470D01*
X206500000Y-73038470D02*
X203420000Y-76118470D01*
X203420000Y-76118470D02*
X203420000Y-90500000D01*
%TO.N,Net-(D2-PadA)*%
X187770000Y-58500000D02*
X180000000Y-66270000D01*
X180000000Y-66270000D02*
X180000000Y-86040000D01*
X180000000Y-86040000D02*
X184460000Y-90500000D01*
%TO.N,GND*%
X185230000Y-58770000D02*
X185000000Y-59000000D01*
X185230000Y-58500000D02*
X185230000Y-58770000D01*
%TO.N,Net-(D1-PadA)*%
X168500000Y-58500000D02*
X160000000Y-67000000D01*
X160000000Y-67000000D02*
X160000000Y-85540000D01*
X160000000Y-85540000D02*
X164460000Y-90000000D01*
%TD*%
M02*
